<svg xmlns="http://www.w3.org/2000/svg" width="10" height="10" viewBox="0 0 41 48"><path fill="#fff" d="M30.804 28.768v2.92c0 3.777-6.027 5.17-9.804 5.17-7.339 0-12.857-5.598-12.857-12.991 0-7.259 5.464-12.723 12.723-12.723 2.652 0 9.589.938 9.589 5.196v2.92a.424.424 0 0 1-.429.429h-3.161a.424.424 0 0 1-.429-.429v-1.875c0-1.688-3.241-2.464-5.438-2.464-5.009 0-8.491 3.616-8.491 8.813 0 5.384 3.643 9.321 8.705 9.321 1.929 0 5.571-.723 5.571-2.411v-1.875c0-.241.188-.429.402-.429h3.188c.214 0 .429.188.429.429zM20.571 6.857C11.116 6.857 3.428 14.544 3.428 24s7.688 17.143 17.143 17.143S37.714 33.455 37.714 24 30.026 6.857 20.571 6.857zM41.143 24c0 11.357-9.214 20.571-20.571 20.571S.001 35.357.001 24 9.215 3.429 20.572 3.429c11.357 0 20.571 9.214 20.571 20.571z"/></svg>