<svg xmlns="http://www.w3.org/2000/svg" width="35" height="35" viewBox="0 0 48 48"><path fill="#7289da" d="M40.444 0c2.812 0 5.08 2.274 5.214 4.95V48l-5.354-4.546-2.94-2.676-3.208-2.796 1.34 4.41H7.42c-2.804 0-5.08-2.13-5.08-4.952V4.96C2.34 2.284 4.62.006 7.43.006h33zM28.208 11.366h-.06l-.404.4c4.146 1.2 6.152 3.074 6.152 3.074-2.672-1.336-5.08-2.004-7.488-2.274-1.74-.27-3.48-.128-4.95 0h-.4c-.94 0-2.94.4-5.62 1.47-.934.406-1.47.672-1.47.672s2.004-2.004 6.42-3.074l-.27-.27s-3.344-.128-6.954 2.54c0 0-3.61 6.288-3.61 14.04 0 0 2 3.48 7.486 3.612 0 0 .8-1.066 1.61-2.004-3.08-.936-4.28-2.808-4.28-2.808s.268.132.67.4h.12c.06 0 .088.03.12.06v.012c.032.032.06.06.12.06.66.272 1.32.54 1.86.8.932.404 2.13.806 3.6 1.072 1.86.27 3.992.4 6.42 0 1.2-.27 2.4-.534 3.6-1.07.78-.4 1.74-.8 2.794-1.474 0 0-1.2 1.872-4.41 2.808.66.932 1.59 2 1.59 2 5.488-.12 7.62-3.6 7.74-3.452 0-7.74-3.63-14.04-3.63-14.04-3.27-2.428-6.33-2.52-6.87-2.52zm.336 8.826c1.406 0 2.54 1.2 2.54 2.67 0 1.48-1.14 2.68-2.54 2.68s-2.54-1.2-2.54-2.668c.004-1.48 1.146-2.676 2.54-2.682zm-9.086 0c1.4 0 2.532 1.2 2.532 2.67 0 1.48-1.14 2.68-2.54 2.68s-2.54-1.2-2.54-2.668c0-1.48 1.14-2.676 2.548-2.682z"/></svg>