<svg xmlns="http://www.w3.org/2000/svg" width="682.667" height="682.667" viewBox="0 0 256 256"><path fill="#7a9e55" stroke-miterlimit="10" d="M2968 5023c-347-530-548-842-548-851 0-7 39-58 86-114 48-57 137-170 199-253 393-524 615-992 681-1436 22-154 15-440-15-581-98-452-367-848-741-1089l-99-64-1-162V310h-690v409l38 6c20 3 82 16 138 29 524 122 942 550 1059 1086 23 104 31 367 15 483-44 327-234 752-513 1149-204 291-397 518-678 802l-208 209-102-94c-207-190-512-536-710-804-307-416-503-812-580-1175-30-141-33-412-6-540 106-501 431-887 897-1065 76-30 211-64 313-80l37-6V310H770V10h3440v300h-650v770l650 2 651 3-287 440c-157 242-289 446-291 452-4 10 45 13 211 15l217 3-326 500c-179 275-325 503-325 507s80 9 178 10l178 3-686 1052c-377 579-688 1053-692 1053-3 0-35-44-70-97zM1840 2163v-298l165 165 165 165 105-105 105-105-270-270-270-270v-365h-300v355l-272 272-273 273 108 107 107 108 165-165 165-165v595h300z" font-family="none" font-size="none" font-weight="none" style="mix-blend-mode:normal" text-anchor="none" transform="matrix(.05 0 0 -.05 -.387 256.25)"/></svg>