<svg xmlns="http://www.w3.org/2000/svg" width="48" height="48"><path fill="#7a9e55" d="M12.792 30.648a9.423 9.423 0 0 1-3.311.589 9.6 9.6 0 0 1-9.6-9.6c0-4.492 3.086-8.264 7.253-9.311l.066-.014v-.321a9.6 9.6 0 0 1 9.6-9.6c1.491 0 2.903.34 4.161.946l-.057-.025c1.55-2.03 3.971-3.327 6.695-3.327a8.402 8.402 0 0 1 8.324 7.267l.005.043c2.491.491 4.407 2.472 4.796 4.958l.004.034c4.195 1.089 7.242 4.842 7.242 9.306a9.6 9.6 0 0 1-9.6 9.6 9.558 9.558 0 0 1-4.179-.955l.057.025a12.132 12.132 0 0 1-5.371 4.698l-.077.03v8.208l4.8 2.4v2.4H14.4v-2.4l4.8-2.4v-7.2l-6.408-5.352zM12 24l7.2 7.2V24H12z"/></svg>