<svg xmlns="http://www.w3.org/2000/svg" width="40pt" height="40pt" version="1.0" viewBox="0 0 64 64"><g fill="#7a9e55"><path d="M19.5 7.7C9.4 9.9 1 15.2 1 19.2s4.3 8.6 9.8 10.2c2 .7 2.2.4 2.2-2.8V23h38v3.6c0 3.2.2 3.5 2.3 2.9 1.2-.4 3.7-1.8 5.4-3.2 8.3-6.1 3.4-14-11.2-17.7-5.5-1.5-23-2-28-.9zM46.3 13c3.5.9 4.7 1.7 4.5 2.9-.4 1.8-1.2 1.8-11.5.2-6.9-1-13.2-.6-23 1.5-2.9.6-3.3.4-3.3-1.3 0-2 3-3.3 11-4.7 4-.7 17.1.1 22.3 1.4z"/><path d="M17 29.4c0 2.8 3.2 3.6 15 3.6s15-.8 15-3.6V27H17v2.4z"/><path d="M.3 29.6c.3 1 .8 3 1.1 4.4.7 3.1 5.4 6.3 12.4 8.5 3.9 1.3 5.2 2.2 5.2 3.7 0 1.7-.5 1.9-3.2 1.3-1.8-.4-5.3-1.6-7.7-2.6-5.3-2.3-5.1-2.3-5.1 0 0 4.8 7.5 10 16.6 11.5l4.1.7.6-4.3c.8-6.3 5.6-9.3 11.2-7.2 2.1.8 4.5 5.6 4.5 8.9 0 2.6.1 2.7 4.3 2C53.5 54.9 61 49.8 61 44.9c0-2.3.2-2.3-5.1 0-2.4 1-5.9 2.2-7.6 2.6-2.8.6-3.3.4-3.3-1.3 0-1.5 1.3-2.4 5.3-3.7 6-1.9 11.5-5.3 12.1-7.5.2-.8.7-2.8 1.1-4.3l.6-2.9L61 30c-7.1 5.1-13.4 6.5-29.5 6.5-13.4 0-15.6-.3-20.4-2.3-3-1.3-6.8-3.2-8.4-4.4-2.8-2-2.9-2-2.4-.2z"/><path d="M29.7 49.6c-.4.4-.7 2.2-.7 4.1 0 3 .3 3.3 3.1 3.3 2.9 0 3-.2 2.7-3.8-.2-2.8-.8-3.8-2.3-4-1.2-.2-2.4 0-2.8.4z"/></g></svg>