<svg xmlns="http://www.w3.org/2000/svg" width="40pt" height="40pt" version="1.0" viewBox="0 0 64 64"><g fill="#7a9e55"><path d="M7.5 1.4c-1.7.7-3.6 2.1-4.4 3-1.3 1.5-.9 2.3 4 7.2 3.5 3.6 6.1 5.4 7.4 5.2 1.8-.3 2 .3 2.3 6.2.4 8.4-1.2 13.9-5.5 19-6.1 7.1-5.5 15 1.6 19.7 3.2 2.2 4.4 2.3 19.5 2.3 8.9 0 17.7-.5 19.6-1 6.1-1.7 12-9.3 12-15.5 0-2.2-.2-2.3-3-1.2-1.6.6-3 1.6-3 2.2 0 2.5-5 5.7-9.5 6.2-3.5.4-5.4 1.4-7.9 3.9-2.9 2.9-4.1 3.4-8 3.4-7.8 0-12.5-3.6-14.1-10.8-.8-3.9 2.4-11.3 5.8-13.1 2.2-1.1 2.2-1.4 1.7-15.4C25.4 7 24.6 4.6 18.3 1.5 14.5-.3 11.5-.4 7.5 1.4zm4.3 6.3c-.4 2.2-2.2 2-2.6-.1C9 6.6 9.5 6 10.5 6s1.5.7 1.3 1.7z"/><path d="M0 12.4c0 .8.5 1.8 1 2.1.6.4.9 3 .8 5.8-.3 4.3 0 5.2 1.5 5.5 1.1.2 3.2-.8 4.8-2.4l2.9-2.8-4.7-4.8c-5-5-6.3-5.7-6.3-3.4zM55 30v5h4.5c4.9 0 5.4-.9 3.4-5.3-1-2.3-4.6-4.7-6.9-4.7-.6 0-1 2.2-1 5zM28.5 39.9c-3.1 1.3-5.5 4.5-6.1 8.3-1.2 6.8 7.1 12.7 13.3 9.4 3.5-1.8 5.2-4.8 5.5-10.1l.3-4 9.6-.3c8.1-.2 9.9-.6 11.4-2.2 1.8-2 1.6-2-15.1-1.9-9.3 0-17.8.4-18.9.8z"/><path d="M45 49c0 2.3 3.7 2.8 7.1 1 3.2-1.8 2.1-3-2.6-3-3.8 0-4.5.3-4.5 2z"/></g></svg>