<svg xmlns="http://www.w3.org/2000/svg" width="40pt" height="40pt" version="1.0" viewBox="0 0 64 64"><g fill="#7a9e55"><path d="M0 2c0 1.9.7 2 9.5 2H19v4.4c0 4.5 2.9 9.6 5.5 9.6.7 0 1.5 1 1.7 2.2.3 2 1 2.3 5.6 2.6 4.7.3 5.4.1 5.9-1.7.3-1.2 1.2-2.1 1.9-2.1.8 0 1.4-.9 1.4-2 0-1.8-.7-2-7.4-2C24.8 15 23 13.8 23 7.9V4h20.5C63.3 4 64 3.9 64 2c0-2-.7-2-32-2S0 0 0 2zM15.2 28.7c-2.8 4-5.2 10.1-5.2 13.4V45h44v-2.9c0-3.3-2.4-9.4-5.2-13.4L46.9 26H17.1l-1.9 2.7zm13.4 3.4c.3.6-1 2.7-3 4.7-2.8 2.9-3.8 3.4-4.8 2.4-.9-.9-.5-2 2.2-4.7 3.6-3.8 4.5-4.1 5.6-2.4zm11.3.2c.8 1 .2 2.2-2.8 5.1-3.4 3.3-3.9 3.5-5.1 2.1-1.1-1.4-.8-2.1 2-5 3.8-3.9 4.3-4.1 5.9-2.2zM10 50.2c.1 1.9 3.9 10 5.7 12 1.2 1.4 3.2 1.8 8 1.8H30V49H20c-7.3 0-10 .3-10 1.2zM34 56.5V64h6.3c7.2 0 8.3-.8 11.6-8 3.2-7.1 3.3-7-7.9-7H34v7.5z"/></g></svg>