<svg xmlns="http://www.w3.org/2000/svg" width="48" height="48" viewBox="5 4 40 40"><path fill="#7a9e55" d="M7.688 19.125q-1.219-.938-1.5-2.391t.469-2.766 2.203-1.781 2.766.094q1.406-1.5 3.891-2.906T20.064 7.5q.188-1.5 1.313-2.484t2.625-.984 2.625.984T27.94 7.5q4.781 1.125 8.344 4.781.563-.281 1.594-.281 2.344 0 3.469 1.969.75 1.313.469 2.766t-1.5 2.391q.656 2.063.656 4.875t-.656 4.875q1.219.938 1.5 2.391t-.469 2.766-2.25 1.781-2.813-.094q-1.406 1.406-2.625 2.25l2.625 6h-3.656l-1.969-4.313q-1.219.563-2.719.844-.188 1.5-1.313 2.484t-2.625.984-2.625-.984-1.313-2.484q-.281-.094-.891-.234t-1.078-.281-.844-.328l-1.969 4.313h-3.75l2.719-6q-1.125-.844-2.531-2.25-1.406.563-2.859.094t-2.203-1.781-.469-2.766 1.5-2.391q-.656-2.063-.656-4.875t.656-4.875zm2.625.844q-.469 1.688-.469 3.75 0 2.344.656 4.313 2.156.188 3.094 1.969.938 1.688.188 3.563.844.75 1.781 1.5l3-6.75q-1.5-1.781-1.5-4.313 0-2.813 2.016-4.781t4.922-1.969 4.922 1.969 2.016 4.781q0 2.344-1.594 4.406l3 6.656q.656-.469 1.781-1.594-.75-1.875.375-3.609t2.906-1.828q.75-2.25.75-4.313 0-1.688-.563-3.75-2.25-.188-3.188-1.969-1.125-1.875 0-3.938-2.813-3.094-6.938-4.125Q26.343 12 23.999 12T20.53 9.937q-3.938 1.031-6.938 4.125 1.125 2.063 0 3.938-.938 1.781-3.281 1.969zM20.906 37.5Q22.125 36 24 36t3.094 1.5q.75-.188 2.25-.75l-2.813-6.375q-1.125.469-2.531.469-1.5 0-2.625-.469l-2.813 6.375q1.5.563 2.344.75z"/></svg>