<svg xmlns="http://www.w3.org/2000/svg" width="40pt" height="40pt" version="1.0" viewBox="0 0 64 64"><g fill="#7a9e55"><path d="M1.7 1.8c-2.9 3.1-2.1 6.9 1.8 8.9C7.9 13 13 7.9 10.7 3.5c-2-3.9-6.3-4.7-9-1.7zM57.3 3.2c.2.7 1 1.3 1.7 1.3s1.5-.6 1.8-1.3C61 2.5 60.3 2 59 2s-2 .5-1.7 1.2zM38.2 6c-1.2.5-3.9 2.1-5.9 3.5-2.1 1.4-5.1 2.5-6.7 2.5C17.3 12 9 20.2 7.5 29.6c-.3 2.5-1.7 6.1-3.1 8.1-7.6 11.2-4 17.7 6.7 12.2 3.4-1.7 3.8-2.3 2.8-3.5-1-1.2-.8-1.8.9-2.9 8-5.7 25.2-23.4 25.2-26.1 0-.6-1.1-1.7-2.5-2.4-3.5-1.9-3.1-2.8 1.8-5s5.5-1.5 3.1 3.5c-1.3 2.8-1.4 3.9-.5 4.8 1.6 1.5 3.7-1.1 5.3-6.5.8-2.9.8-4.1-.2-5.3-1.4-1.7-5.3-1.9-8.8-.5zM10.5 42.1c1.9 3.6 2 3.4-2.8 5.4-3.5 1.4-3.7 1.4-3.7-.2C4 45.5 7.5 39 8.5 39c.2 0 1.2 1.4 2 3.1zM38.1 26.5c-4.6 5.7-11.8 12.8-18.6 18.2l-4 3.2 3.7 1.5c15.3 6.5 31.7-8.1 26.6-23.5-.8-2.4-1.9-4.4-2.4-4.6-.5-.2-2.9 2.2-5.3 5.2zM54 24.5c0 .8.7 1.5 1.5 1.5s1.5-.7 1.5-1.5-.7-1.5-1.5-1.5-1.5.7-1.5 1.5zM49.9 46.5c-5.2 2.9-6.2 11.1-1.7 15.1 3 2.8 10.1 2.6 13-.4 3.1-3 3.2-10.2.2-13.2-2.6-2.7-8.2-3.4-11.5-1.5zM12.5 56c-.7 1.2.2 3 1.6 3 .5 0 .9-.9.9-2 0-2.1-1.5-2.7-2.5-1zM33 60.5c0 .8.7 1.5 1.5 1.5s1.5-.7 1.5-1.5-.7-1.5-1.5-1.5-1.5.7-1.5 1.5z"/></g></svg>