<svg xmlns="http://www.w3.org/2000/svg" width="40pt" height="40pt" version="1.0" viewBox="0 0 64 64"><g fill="#7a9e55"><path d="M45 16.5V20h-6c-5.3 0-6 .2-6 2s.7 2 5.5 2h5.6l-3 4.4c-1.7 2.5-4.7 5.8-6.6 7.4-2.5 2-3.4 3.4-2.9 4.5 1 2.6 2.1 2.1 8-3.7l5.4-5.5V42h-3.5c-2.8 0-3.5.4-3.5 2s.7 2 3.5 2c3.1 0 3.5.3 3.5 2.5 0 1.8.5 2.5 2 2.5s2-.7 2-2.4c0-2.1.5-2.5 3.7-2.8 2.6-.2 3.9-.8 4.1-2 .2-1.3-.5-1.7-3.5-2l-3.8-.3-.3-5.5-.3-5.4 6.1 5.8c5.3 5.1 6.3 5.7 7.6 4.5 1.2-1.3.5-2.4-5.1-8.1-3.6-3.7-6.5-7.2-6.5-7.7 0-.6 2.2-1.1 5-1.1 4.3 0 5-.3 5-2 0-1.6-.8-1.9-5.7-2.2-5.7-.3-5.8-.3-6.1-3.6-.2-2.4-.8-3.2-2.3-3.2-1.5 0-1.9.7-1.9 3.5zM0 32c0 17.3.1 18 2 18 1.1 0 2-.5 2-1 0-.6 3.8-1 9.5-1s9.5.4 9.5 1c0 .5 1.1 1 2.5 1H28V14H0v18zm23-8.5V29H4V18h19v5.5zm0 15v5.6l-9.2-.3-9.3-.3-.3-5.3-.3-5.2H23v5.5z"/></g></svg>