<svg xmlns="http://www.w3.org/2000/svg" width="40pt" height="40pt" version="1.0" viewBox="0 0 64 64"><g fill="#7a9e55"><path d="M45.6 1.9c-1.7 1.8-1.6 2.1 1 7.3 2.6 5.1 4 6.8 5.8 6.8 1.2 0 0-9.4-1.6-12.7-1.7-3.4-3-3.8-5.2-1.4zM35 5.9c0 1.6-1.2 4.4-2.9 6.5-4 5-4.7 9.5-2.2 15.1 4.4 10 14.8 7.2 15.9-4.4.5-5.8-.9-10.5-4.9-16C37.4 2.2 35 1.7 35 5.9zM55.6 5.2c.3 1.3.7 2.4.8 2.4 0 .1 1.1.5 2.4.8 2.8.9 2.9-.7.2-3.4-2.7-2.7-4.3-2.6-3.4.2zM57 15.3c0 4.4 2.5 5.6 5.4 2.7 1.8-1.7 1.9-2.2.6-3.4-.8-.8-2.5-1.7-3.7-2.1-2.1-.6-2.3-.3-2.3 2.8zM50 22.3c0 1.8-1.1 5.5-2.4 8-2.8 5.6-1.6 6.1 3.9 1.7 2.2-1.8 5-3 6.6-3 1.9 0 2.9-.5 2.9-1.4 0-1.5-4.5-5.3-8.7-7.5-2.2-1.1-2.3-1-2.3 2.2zM12.7 27.2C9.2 31.9 8 34.5 8 37.5c0 2.2 1.3 5.9 2.7 7.4.2.3 2.8-2 5.8-4.9 6-5.9 7-9.4 3.9-13.8-2.1-3.1-4.9-2.7-7.7 1zM14 47.5C2.5 59-.2 62.2.8 63.2S5 61.5 16.6 49.9c11.7-11.7 14.3-14.8 13.2-15.7-1.1-.9-4.3 1.8-15.8 13.3zM16 55.5c-6.4 6.5-5.9 8 2.3 8 4.5 0 5.9-.5 9.5-3.3 5-4 5.3-6.6 1.2-8.7-5-2.6-7.2-1.9-13 4z"/></g></svg>