<svg xmlns="http://www.w3.org/2000/svg" width="35" height="35" viewBox="0 0 48 48"><path fill="#00b2ff" d="M0 23.28C0 9.9 10.48 0 24 0s24 9.9 24 23.28-10.48 23.28-24 23.28c-2.42 0-4.76-.32-6.94-.92a1.91 1.91 0 0 0-1.292.105l.012-.005-4.78 2.1a1.92 1.92 0 0 1-2.7-1.697v-.003l-.14-4.28a1.935 1.935 0 0 0-.638-1.358L7.52 40.5C2.893 36.314-.002 30.288-.002 23.585L0 23.264v.016zm16.64-4.38L9.6 30.1c-.7 1.06.64 2.28 1.64 1.5l7.58-5.74c.52-.4 1.2-.4 1.74 0l5.6 4.2c1.68 1.26 4.08.8 5.2-.96l7.04-11.2c.7-1.06-.64-2.26-1.64-1.5l-7.58 5.74c-.5.4-1.2.4-1.72 0l-5.6-4.2a3.576 3.576 0 0 0-2.17-.728 3.596 3.596 0 0 0-3.041 1.673l-.009.015z"/></svg>