<svg xmlns="http://www.w3.org/2000/svg" width="35" height="35" viewBox="0 0 48 48"><path fill="#665cac" d="M22.796.004c-3.85.052-12.134.684-16.768 4.93-3.44 3.42-4.642 8.462-4.782 14.706-.12 6.22-.26 17.9 11 21.082v4.84s-.076 1.94 1.204 2.34c1.58.5 2.48-.998 3.98-2.598l2.8-3.16c7.7.64 13.6-.838 14.28-1.058 1.56-.5 10.362-1.622 11.802-13.304 1.48-12.062-.72-19.662-4.68-23.102l-.02-.004c-1.2-1.1-6-4.6-16.74-4.64 0 0-.792-.05-2.076-.032zm.134 3.394c1.09-.006 1.76.04 1.76.04 9.08.02 13.422 2.76 14.442 3.68 3.34 2.858 5.056 9.712 3.8 19.784-1.2 9.76-8.34 10.38-9.66 10.8-.56.18-5.76 1.46-12.304 1.04 0 0-4.878 5.882-6.398 7.402-.24.26-.52.34-.7.3-.26-.06-.34-.38-.32-.82l.04-8.038c-9.542-2.64-8.982-12.604-8.882-17.804.12-5.2 1.1-9.464 4-12.344 3.914-3.54 10.95-4.02 14.222-4.04zm.72 5.2h-.002a.598.598 0 0 0-.598.598.6.6 0 0 0 .6.6l.215-.002c3.052 0 5.82 1.214 7.848 3.185l-.003-.003c2.18 2.12 3.242 4.96 3.282 8.68a.6.6 0 0 0 .6.6v-.018a.6.6 0 0 0 .6-.6 12.861 12.861 0 0 0-3.623-9.524l.003.003c-2.38-2.32-5.384-3.52-8.922-3.52zm-7.908 1.38a1.896 1.896 0 0 0-1.238.245l.009-.005h-.024a9.49 9.49 0 0 0-2.296 1.88c-.54.64-.842 1.278-.922 1.898a2.458 2.458 0 0 0 .105 1.099l-.005-.018.04.02a27.26 27.26 0 0 0 2.469 5.323l-.069-.123a30.947 30.947 0 0 0 4.652 6.355l-.012-.013.06.08.08.06.12.12a31.277 31.277 0 0 0 6.203 4.579l.157.081c2.64 1.44 4.244 2.12 5.204 2.4v.02c.28.08.536.12.796.12a3.67 3.67 0 0 0 2.207-.947l-.003.003c.78-.7 1.4-1.476 1.86-2.296v-.02c.46-.86.3-1.682-.36-2.242a27.21 27.21 0 0 0-4.172-3.01l-.128-.07c-1.02-.56-2.06-.22-2.48.34l-.9 1.138c-.46.56-1.3.48-1.3.48l-.024.02c-6.24-1.6-7.9-7.918-7.9-7.918s-.08-.86.5-1.3l1.12-.9c.54-.44.92-1.48.34-2.5a27.098 27.098 0 0 0-3.106-4.33l.026.03a1.683 1.683 0 0 0-.998-.598l-.011-.002zm8.946 1.78a.6.6 0 0 0 .002 1.2h.002a7.54 7.54 0 0 1 5.298 2.298l.002.002a6.968 6.968 0 0 1 1.799 5.16l.001-.021a.6.6 0 0 0 .6.598l.02.024a.6.6 0 0 0 .6-.6v-.002c.06-2.38-.68-4.38-2.14-5.98s-3.5-2.5-6.1-2.68l-.042-.001-.044.002h.002zm.98 3.238h-.018a.61.61 0 0 0-.019 1.222h.001c1.98.1 2.94 1.1 3.06 3.16a.6.6 0 0 0 .6.58h.02a.6.6 0 0 0 .581-.6l-.001-.042v.002c-.14-2.68-1.6-4.182-4.2-4.322h-.025.001z"/></svg>