<svg xmlns="http://www.w3.org/2000/svg" width="35" height="35" viewBox="0 0 48 48"><path fill="#25d366" d="M34.996 28.764c-.602-.3-3.534-1.734-4.08-1.932-.546-.202-.946-.3-1.346.3-.394.59-1.542 1.928-1.888 2.324-.35.39-.698.42-1.292.15-.6-.3-2.526-.93-4.806-2.97-1.776-1.59-2.968-3.54-3.32-4.14-.348-.6-.038-.93.26-1.23.272-.27.602-.69.902-1.046.292-.362.388-.602.594-.992.2-.42.098-.75-.05-1.048-.15-.3-1.344-3.24-1.844-4.412-.48-1.168-.974-1.02-1.344-1.02-.344-.03-.742-.03-1.142-.03s-1.046.148-1.594.718c-.546.6-2.09 2.04-2.09 4.95s2.14 5.73 2.438 6.15c.298.39 4.21 6.39 10.2 8.97 1.428.6 2.54.96 3.408 1.258 1.428.454 2.73.39 3.76.242 1.148-.182 3.534-1.442 4.032-2.852.51-1.41.51-2.58.36-2.85-.148-.27-.54-.42-1.14-.69zM24.122 43.5h-.032c-3.54 0-7.048-.96-10.11-2.76l-.72-.428-7.5 1.95 2.01-7.29-.478-.75a19.737 19.737 0 0 1-3.032-10.52c0-10.89 8.91-19.77 19.884-19.77 5.308 0 10.29 2.07 14.042 5.82a19.576 19.576 0 0 1 5.818 13.98c-.008 10.888-8.92 19.77-19.87 19.77zM41.04 6.898C36.48 2.49 30.48 0 24.09 0 10.926 0 .208 10.668.202 23.786c0 4.192 1.098 8.28 3.19 11.89L0 48l12.67-3.304a24.124 24.124 0 0 0 11.42 2.894h.012c13.17 0 23.892-10.672 23.898-23.792 0-6.352-2.48-12.33-6.99-16.822z"/></svg>